<svg width="105" height="91" viewBox="0 0 105 91" fill="none" xmlns="http://www.w3.org/2000/svg">
<path d="M48.27 10.68L52.53 0L56.79 10.68H48.27Z" fill="#FBD700"/>
<path d="M61.26 10.86L68.58 1.99L69.37 13.46L61.26 10.86Z" fill="#FBD700"/>
<path d="M73.41 15.51L83.1 9.3L80.34 20.47L73.41 15.51Z" fill="#FBD700"/>
<path d="M83.56 23.65L94.68 20.7L88.64 30.49L83.56 23.65Z" fill="#FBD700"/>
<path d="M90.73 34.5L102.22 35.09L93.48 42.57L90.73 34.5Z" fill="#FBD700"/>
<path d="M94.24 47.03L105 51.1L94.39 55.55L94.24 47.03Z" fill="#FBD700"/>
<path d="M10.7 56.3L0 52.06L10.68 47.77L10.7 56.3Z" fill="#FBD700"/>
<path d="M11.46 42.9L2.64999 35.51L14.13 34.81L11.46 42.9Z" fill="#FBD700"/>
<path d="M16.29 30.63L10.2 20.87L21.34 23.76L16.29 30.63Z" fill="#FBD700"/>
<path d="M24.58 20.55L21.77 9.4L31.49 15.56L24.58 20.55Z" fill="#FBD700"/>
<path d="M35.54 13.51L36.29 2.03L43.64 10.88L35.54 13.51Z" fill="#FBD700"/>
<path d="M28.28 49.13C32.5429 49.1133 36.7486 50.1108 40.55 52.04L40.83 52.19L41.1 52.37C44.53 54.74 54.83 60.88 61.1 60.88C61.9672 60.9726 62.8377 60.7372 63.54 60.22L63.67 60.1C64.1789 59.6322 64.5286 59.0167 64.67 58.34C64.67 58.15 64.05 57.2 61.67 56.06L55.24 52.96L60.56 48.21C61.2 47.64 67 42.64 74.56 42.64C78.5931 42.6302 82.4881 44.1078 85.5 46.79L85.66 46.93C88.1949 49.4307 90.1538 52.4543 91.4 55.79C91.9597 50.5631 91.4478 45.277 89.8957 40.2546C88.3435 35.2322 85.7837 30.579 82.3725 26.5793C78.9613 22.5796 74.7705 19.3174 70.0561 16.992C65.3416 14.6666 60.2025 13.3268 54.9528 13.0545C49.7031 12.7823 44.453 13.5832 39.5233 15.4084C34.5936 17.2336 30.0877 20.0447 26.2811 23.67C22.4744 27.2953 19.4469 31.6587 17.3835 36.4936C15.32 41.3285 14.264 46.5333 14.28 51.79C14.28 52.01 14.28 52.23 14.28 52.45C18.6478 50.3329 23.4267 49.1997 28.28 49.13V49.13Z" fill="#FBD700"/>
<path d="M66.35 87.82C65.57 87.82 64.79 87.82 63.97 87.72C51.97 86.72 44.77 79.66 38.42 73.41C32.29 67.41 27 62.18 17.99 62.18C17.26 62.18 16.5 62.18 15.74 62.3C17.2095 67.4819 19.7453 72.2996 23.1849 76.4445C26.6245 80.5894 30.8921 83.97 35.7142 86.3697C40.5362 88.7695 45.8064 90.1354 51.1871 90.38C56.5677 90.6245 61.9401 89.7424 66.96 87.79C66.75 87.8 66.56 87.82 66.35 87.82Z" fill="#187ED0"/>
<path d="M14.71 57.58C14.71 57.58 26.5 50.25 38.39 56.3C38.39 56.3 59.39 70.82 66.88 63.66C66.88 63.66 74.48 56.91 63.8 51.76C63.8 51.76 72.31 43.28 82.39 50.41C82.39 50.41 93.47 57.79 86.22 71.41C86.22 71.41 79.22 84.15 64.36 82.93C42.23 81.16 39.05 55.02 14.71 57.58Z" fill="#24AAF3"/>
</svg>
