<svg width="105" height="91" viewBox="0 0 105 91" fill="none" xmlns="http://www.w3.org/2000/svg">
<path d="M56.0523 10.18H49.0077L52.53 1.34956L56.0523 10.18Z" stroke="#FBD700"/>
<path d="M68.8205 12.7588L62.1153 10.6091L68.1674 3.27556L68.8205 12.7588Z" stroke="#FBD700"/>
<path d="M80.0315 19.6343L74.301 15.5328L82.3137 10.3978L80.0315 19.6343Z" stroke="#FBD700"/>
<path d="M88.6017 29.5998L84.4013 23.9441L93.5959 21.5049L88.6017 29.5998Z" stroke="#FBD700"/>
<path d="M93.7153 41.7105L91.4413 35.0372L100.943 35.5251L93.7153 41.7105Z" stroke="#FBD700"/>
<path d="M94.8769 54.8036L94.7529 47.7586L103.65 51.124L94.8769 54.8036Z" stroke="#FBD700"/>
<path d="M10.1817 48.509L10.1983 55.5634L1.34928 52.0568L10.1817 48.509Z" stroke="#FBD700"/>
<path d="M13.4239 35.354L11.2163 42.043L3.932 35.9328L13.4239 35.354Z" stroke="#FBD700"/>
<path d="M20.4999 24.0586L16.3239 29.7397L11.2877 21.6687L20.4999 24.0586Z" stroke="#FBD700"/>
<path d="M30.5986 15.587L24.8847 19.7132L22.5612 10.4934L30.5986 15.587Z" stroke="#FBD700"/>
<path d="M42.7842 10.6322L36.087 12.8067L36.7071 3.31485L42.7842 10.6322Z" stroke="#FBD700"/>
<path d="M28.2728 48.63L28.278 48.63C32.6202 48.613 36.9042 49.629 40.7763 51.5941L40.7862 51.5992L40.7861 51.5993L41.0661 51.7493L41.0873 51.7606L41.1073 51.774L41.3773 51.954L41.3843 51.9586L41.3842 51.9586C43.0803 53.1306 46.4906 55.2447 50.2526 57.0636C54.0356 58.8927 58.0883 60.38 61.1 60.38H61.1266L61.1531 60.3828C61.8872 60.4612 62.6241 60.2652 63.222 59.8331L63.3308 59.7326L63.3316 59.7319C63.7277 59.3678 64.0101 58.8985 64.1469 58.3803C64.1415 58.3723 64.1356 58.3636 64.1289 58.3543C64.0598 58.2575 63.9348 58.1124 63.7296 57.9293C63.3201 57.5639 62.6122 57.0657 61.454 56.5109L61.4529 56.5104L55.0229 53.4104L54.3488 53.0854L54.907 52.587L60.227 47.837L60.2275 47.8366C60.8806 47.2549 66.8021 42.1402 74.5596 42.14M28.2728 48.63L74.56 42.64M28.2728 48.63C23.611 48.697 19.0168 49.7307 14.7798 51.6625M28.2728 48.63L14.7798 51.6625M74.5596 42.14C74.5597 42.14 74.5599 42.14 74.56 42.14V42.64M74.5596 42.14C74.5593 42.14 74.559 42.14 74.5588 42.14L74.56 42.64M74.5596 42.14C78.7147 42.1301 82.7276 43.6522 85.8309 46.4152L85.8292 46.4137L85.5 46.79M74.56 42.64C78.593 42.6302 82.4881 44.1078 85.5 46.79M85.5 46.79L85.8325 46.4166M85.5 46.79L85.8325 46.4166M85.8325 46.4166L85.9892 46.5537L86.0005 46.5636L86.0111 46.5741C88.1062 48.6408 89.8156 51.0576 91.0654 53.7101C91.3056 49.217 90.7497 44.7113 89.418 40.4022C87.8859 35.4448 85.3591 30.8518 81.9921 26.9038C78.625 22.9558 74.4884 19.7358 69.8349 17.4404C65.1814 15.1451 60.1088 13.8226 54.9269 13.5539C49.7451 13.2851 44.5629 14.0757 39.6969 15.8773C34.8309 17.6789 30.3833 20.4536 26.6259 24.0321C22.8685 27.6105 19.8801 31.9175 17.8433 36.6899C15.8231 41.4236 14.7812 46.5166 14.7798 51.6625M85.8325 46.4166L14.7798 51.6625M64.1885 58.4526C64.1884 58.4526 64.1873 58.4504 64.1858 58.4461C64.1878 58.4504 64.1886 58.4526 64.1885 58.4526Z" stroke="#FBD700"/>
<path d="M38.0698 73.7669C44.4117 80.0089 51.7258 87.198 63.919 88.2175C63.9918 88.2263 64.0643 88.2344 64.1364 88.2417C59.9599 89.5228 55.5876 90.0795 51.2098 89.8805C45.8987 89.6391 40.6967 88.2908 35.9369 85.9221C31.1772 83.5534 26.9648 80.2165 23.5697 76.1252C20.2993 72.1842 17.8567 67.627 16.3852 62.7259C16.9144 62.6805 17.4482 62.68 17.99 62.68C26.7428 62.68 31.8901 67.7182 38.0172 73.7154L38.0693 73.7663C38.0694 73.7665 38.0696 73.7667 38.0698 73.7669Z" stroke="#187ED0"/>
<path d="M82.1013 50.8182L82.1012 50.8184L82.1124 50.8258L82.1125 50.8259L82.1128 50.8261L82.113 50.8262L82.117 50.829L82.1367 50.8425C82.1548 50.8551 82.1828 50.8747 82.2198 50.9014C82.2937 50.9548 82.4034 51.0364 82.5418 51.1459C82.8187 51.3649 83.2098 51.6949 83.6585 52.1335C84.5569 53.0117 85.6795 54.3188 86.5811 56.035C88.3712 59.4423 89.322 64.5159 85.7806 71.1714C85.7799 71.1726 85.7793 71.1738 85.7786 71.1751L85.7785 71.1752L85.7649 71.1992C85.7525 71.221 85.7332 71.2544 85.7072 71.2986C85.655 71.387 85.5755 71.5184 85.4685 71.6864C85.2545 72.0223 84.9305 72.5041 84.4952 73.08C83.624 74.2326 82.3098 75.7577 80.5408 77.2448C77.0062 80.216 71.667 83.0282 64.4009 82.4317L64.3999 82.4316C54.3004 81.6238 48.2327 75.6602 42.089 69.6221C41.6313 69.1722 41.1731 68.7218 40.7127 68.2732C34.5374 62.2545 28.0101 56.5935 17.093 56.9169C18.3532 56.3474 20.1125 55.6661 22.2092 55.1571C26.5624 54.1004 32.3389 53.7929 38.1342 56.7309L38.1687 56.7545C38.2096 56.7824 38.27 56.8233 38.3488 56.8763C38.5063 56.9822 38.7377 57.1361 39.0343 57.329C39.6276 57.715 40.4824 58.2575 41.5313 58.8858C43.6279 60.1416 46.506 61.7437 49.6241 63.1223C52.7368 64.4984 56.1166 65.6644 59.2104 66.0272C62.2936 66.3888 65.1909 65.962 67.2198 64.0269L67.2207 64.0261L67.24 64.0085C67.2467 64.0023 67.2546 63.9949 67.2636 63.9866C67.2763 63.9747 67.2912 63.9606 67.3082 63.9444C67.3659 63.8892 67.4475 63.8092 67.5463 63.7063C67.7437 63.5007 68.0116 63.2027 68.2978 62.8286C68.8665 62.0851 69.526 61.0171 69.8309 59.759C70.139 58.4878 70.0829 57.0256 69.2191 55.5406C68.4347 54.1922 67.0087 52.8666 64.6818 51.6441C64.9116 51.4525 65.2126 51.2146 65.5782 50.953C66.507 50.2884 67.8453 49.4762 69.4855 48.8813C72.7487 47.6976 77.2188 47.3646 82.1013 50.8182Z" stroke="#24AAF3"/>
</svg>
